<?xml version="1.0" encoding="UTF-8"?>
<svg width="16px" height="16px" viewBox="0 0 16 16" version="1.1" xmlns="http://www.w3.org/2000/svg" xmlns:xlink="http://www.w3.org/1999/xlink">
    <title>0401790F-193B-4BCE-BEF8-DF41BB220D57</title>
    <g id="메인" stroke="none" stroke-width="1" fill="none" fill-rule="evenodd">
        <g id="메인페이지" transform="translate(-33.000000, -1106.000000)">
            <g id="main/feed2" transform="translate(21.000000, 977.000000)">
                <g id="heart-ico" transform="translate(12.000000, 129.000000)">
                    <polygon id="Path" points="0 0 16 0 16 16 0 16"></polygon>
                    <path d="M11,2 C9.84,2 8.72666667,2.54 8,3.39333333 C7.27333333,2.54 6.16,2 5,2 C2.94666667,2 1.33333333,3.61333333 1.33333333,5.66666667 C1.33333333,8.18666667 3.6,10.24 7.03333333,13.36 L8,14.2333333 L8.96666667,13.3533333 C12.4,10.24 14.6666667,8.18666667 14.6666667,5.66666667 C14.6666667,3.61333333 13.0533333,2 11,2 Z M8.06666667,12.3666667 L8,12.4333333 L7.93333333,12.3666667 C4.76,9.49333333 2.66666667,7.59333333 2.66666667,5.66666667 C2.66666667,4.33333333 3.66666667,3.33333333 5,3.33333333 C6.02666667,3.33333333 7.02666667,3.99333333 7.38,4.90666667 L8.62666667,4.90666667 C8.97333333,3.99333333 9.97333333,3.33333333 11,3.33333333 C12.3333333,3.33333333 13.3333333,4.33333333 13.3333333,5.66666667 C13.3333333,7.59333333 11.24,9.49333333 8.06666667,12.3666667 Z" id="Shape" fill="#A8A8A8" fill-rule="nonzero"></path>
                </g>
            </g>
        </g>
    </g>
</svg>