<svg width="25" height="24" viewBox="0 0 25 24" xmlns="http://www.w3.org/2000/svg">
    <g fill="none" fill-rule="evenodd">
        <path d="M24.5 0H.5v24h24z"/>
        <g fill="#AAA" fill-rule="nonzero">
            <path d="M7.739 10.927a5 5 0 1 1 6.19 0 8.336 8.336 0 0 1 5.238 7.74v2.5c0 .46-.373.833-.834.833h-15a.833.833 0 0 1-.833-.833v-2.5a8.336 8.336 0 0 1 5.239-7.74zM14.167 7A3.333 3.333 0 1 0 7.5 7a3.333 3.333 0 0 0 6.667 0zm-10 12.5c0 .46.373.833.833.833h11.667c.46 0 .833-.373.833-.833v-.833a6.667 6.667 0 0 0-13.333 0v.833z"/>
            <path d="M15.833 11.167c0-.46.373-.834.834-.834a2.5 2.5 0 1 0 0-5 .833.833 0 0 1 0-1.666 4.167 4.167 0 0 1 2.708 7.332 5.832 5.832 0 0 1 3.125 5.168.833.833 0 0 1-1.667 0A4.167 4.167 0 0 0 16.667 12a.833.833 0 0 1-.834-.833z"/>
        </g>
    </g>
</svg>
