<svg width="24" height="24" viewBox="0 0 24 24" xmlns="http://www.w3.org/2000/svg">
    <g fill="none" fill-rule="evenodd">
        <path d="M24 0H0v24h24z"/>
        <path d="M8.843 10.927A4.956 4.956 0 0 1 6.9 7c0-2.761 2.283-5 5.1-5 2.817 0 5.1 2.239 5.1 5 0 1.593-.76 3.012-1.943 3.927 3.131 1.23 5.343 4.23 5.343 7.74v2.5c0 .46-.38.833-.85.833H4.35a.842.842 0 0 1-.85-.833v-2.5c0-3.51 2.212-6.511 5.343-7.74zM15.4 7c0-1.84-1.522-3.333-3.4-3.333S8.6 5.159 8.6 7c0 1.841 1.522 3.333 3.4 3.333S15.4 8.841 15.4 7zM5.2 19.5c0 .46.38.833.85.833h11.9c.47 0 .85-.373.85-.833v-.833C18.8 14.985 15.756 12 12 12s-6.8 2.985-6.8 6.667v.833z" fill="#AAA" fill-rule="nonzero"/>
    </g>
</svg>
