<svg width="24" height="24" viewBox="0 0 24 24" xmlns="http://www.w3.org/2000/svg">
    <g fill="none" fill-rule="evenodd">
        <path d="M0 0h24v24H0z"/>
        <path d="M14.272 19.724a2.272 2.272 0 0 1-4.544 0H2.91a.909.909 0 0 1-.684-1.507l2.282-2.609c.351-.401.674-1.26.674-1.793V8.817a6.817 6.817 0 0 1 13.634 0v4.998c0 .534.323 1.391.674 1.793l2.282 2.609a.909.909 0 0 1-.684 1.507h-6.817zm3.851-2.919c-.642-.733-1.124-2.016-1.124-2.99V8.817a5 5 0 0 0-9.998 0v4.998c0 .973-.483 2.257-1.124 2.99l-.963 1.101h14.172l-.963-1.1z" fill="#AAA" fill-rule="nonzero"/>
    </g>
</svg>
